                    <svg viewBox="0 0 278 95" fill="none" xmlns="http://www.w3.org/2000/svg" style="fill: rgb(230, 51, 42);">
                        <path d="M42.2 1.19995V73.2C42.2 84.9 32.7 94.3 21.1 94.3C16.9 94.3 12.9 93.1 9.6 90.9C3.8 87.2 0 80.6 0 73.2V28.7H19.3C19.3 28.7 19.3 60.4 19.3 73.2C19.3 74.2 20.1 75 21.1 75C22.1 75 22.9 74.2 22.9 73.2V1.19995H42.2V1.19995Z"></path>
                        <path d="M133.9 1.19995V73.2C133.9 84.9 124.4 94.3 112.8 94.3C108.6 94.3 104.6 93.1 101.3 90.9C95.5001 87.1 91.6001 80.6 91.6001 73.2V28.7H111C111 28.7 111 60.4 111 73.2C111 74.2 111.8 75 112.8 75C113.8 75 114.6 74.2 114.6 73.2V1.19995H133.9V1.19995Z"></path>
                        <path d="M225.7 1.19995V73.2C225.7 84.9 216.2 94.3 204.6 94.3C200.4 94.3 196.4 93.1 193.1 90.9C187.3 87.1 183.4 80.6 183.4 73.2V28.7H202.7V73.2C202.7 74.2 203.5 75 204.5 75C205.5 75 206.3 74.2 206.3 73.2V1.19995H225.7V1.19995Z"></path>
                        <path d="M179.7 19.3C178.8 8.5 169.7 0 158.7 0C147.1 0 137.7 9.4 137.6 21V21.1V93.1H156.9V64.3H160.5V93.1H179.8V21.1C179.8 20.5 179.8 19.9 179.7 19.3ZM156.9 21.1C156.9 20.1 157.7 19.3 158.7 19.3C159.7 19.3 160.5 20.1 160.5 21.1V44.4H156.9V21.1V21.1Z"></path>
                        <path d="M87.9999 19.3C87.0999 8.5 77.9999 0 66.9999 0C55.3999 0 45.9999 9.4 45.8999 21V21.1V93.1H65.1999V64.3H68.7999V93.1H88.0999V21.1C88.0999 20.5 88.0999 19.9 87.9999 19.3ZM65.1999 21.1C65.1999 20.1 65.9999 19.3 66.9999 19.3C67.9999 19.3 68.7999 20.1 68.7999 21.1V44.4H65.1999V21.1Z"></path>
                        <path d="M271.4 19.3C270.5 8.5 261.4 0 250.4 0C238.8 0 229.4 9.4 229.3 21V21.1V93.1H248.6V64.3H252.2V93.1H271.5V21.1C271.5 20.5 271.5 19.9 271.4 19.3ZM248.6 21.1C248.6 20.1 249.4 19.3 250.4 19.3C251.4 19.3 252.2 20.1 252.2 21.1V44.4H248.6V21.1V21.1Z"></path>
                        <path d="M271.6 3.3C271.6 1.4 273 0 274.8 0C276.6 0 278 1.4 278 3.3C278 5.2 276.6 6.6 274.8 6.6C273 6.6 271.6 5.2 271.6 3.3ZM277.6 3.3C277.6 1.6 276.4 0.3 274.8 0.3C273.2 0.3 272 1.6 272 3.3C272 5 273.2 6.3 274.8 6.3C276.4 6.3 277.6 5 277.6 3.3ZM273 3.3C273 2.1 273.7 1.2 274.8 1.2C275.7 1.2 276.2 1.7 276.4 2.5H275.9C275.8 2 275.5 1.7 274.9 1.7C274 1.7 273.6 2.4 273.6 3.3C273.6 4.2 274.1 4.9 274.9 4.9C275.6 4.9 275.9 4.5 276 3.9H276.5C276.5 4.3 276.3 4.6 276.1 4.9C275.8 5.2 275.4 5.4 274.9 5.4C273.7 5.3 273 4.5 273 3.3Z"></path>
                    </svg>